<?xml version="1.0" encoding="UTF-8"?>
<svg xmlns="http://www.w3.org/2000/svg" xmlns:xlink="http://www.w3.org/1999/xlink" viewBox="0 0 64 64" width="64px" height="64px">
<defs>
<radialGradient id="radial0" gradientUnits="userSpaceOnUse" cx="29.979" cy="36.5" fx="29.979" fy="36.5" r="32.703999" >
<stop offset="0" style="stop-color:rgb(16.470589%,43.921569%,23.921569%);stop-opacity:1;"/>
<stop offset="0" style="stop-color:rgb(94.901961%,87.843138%,73.333335%);stop-opacity:1;"/>
<stop offset="0.011" style="stop-color:rgb(94.901961%,87.843138%,73.725492%);stop-opacity:1;"/>
<stop offset="0.362" style="stop-color:rgb(97.647059%,92.941177%,82.352942%);stop-opacity:1;"/>
<stop offset="0.699" style="stop-color:rgb(99.607843%,95.686275%,87.450981%);stop-opacity:1;"/>
<stop offset="1" style="stop-color:rgb(100%,96.862745%,89.411765%);stop-opacity:1;"/>
</radialGradient>
<linearGradient id="linear0" gradientUnits="userSpaceOnUse" x1="29.5" y1="57" x2="29.5" y2="9.812" >
<stop offset="0" style="stop-color:rgb(29.411766%,79.215688%,93.333334%);stop-opacity:1;"/>
<stop offset="0.539" style="stop-color:rgb(33.725491%,80.392158%,94.117647%);stop-opacity:1;"/>
<stop offset="1" style="stop-color:rgb(39.215687%,81.568629%,95.294118%);stop-opacity:1;"/>
</linearGradient>
<linearGradient id="linear1" gradientUnits="userSpaceOnUse" x1="52.5" y1="28.379999" x2="52.5" y2="57.380001" >
<stop offset="0" style="stop-color:rgb(18.82353%,76.47059%,91.764706%);stop-opacity:1;"/>
<stop offset="0.169" style="stop-color:rgb(16.862746%,73.725492%,90.588236%);stop-opacity:1;"/>
<stop offset="0.406" style="stop-color:rgb(11.764706%,66.666669%,87.450981%);stop-opacity:1;"/>
<stop offset="0.479" style="stop-color:rgb(9.803922%,63.921571%,86.274511%);stop-opacity:1;"/>
<stop offset="1" style="stop-color:rgb(9.411765%,63.137257%,85.882354%);stop-opacity:1;"/>
</linearGradient>
<linearGradient id="linear2" gradientUnits="userSpaceOnUse" x1="53.990002" y1="29.188999" x2="53.990002" y2="50.816002" >
<stop offset="0" style="stop-color:rgb(21.960784%,79.215688%,92.941177%);stop-opacity:1;"/>
<stop offset="0.627" style="stop-color:rgb(14.901961%,70.19608%,89.019608%);stop-opacity:1;"/>
<stop offset="0.996" style="stop-color:rgb(10.196079%,63.921571%,86.274511%);stop-opacity:1;"/>
</linearGradient>
<linearGradient id="linear3" gradientUnits="userSpaceOnUse" x1="32.25" y1="36.984001" x2="32.25" y2="57.984001" >
<stop offset="0" style="stop-color:rgb(25.098041%,78.431374%,93.333334%);stop-opacity:1;"/>
<stop offset="1" style="stop-color:rgb(17.647059%,72.941178%,90.980393%);stop-opacity:1;"/>
</linearGradient>
<linearGradient id="linear4" gradientUnits="userSpaceOnUse" x1="15" y1="23" x2="15" y2="8" >
<stop offset="0" style="stop-color:rgb(47.843137%,85.09804%,96.470588%);stop-opacity:1;"/>
<stop offset="1" style="stop-color:rgb(52.156866%,85.882354%,97.254902%);stop-opacity:1;"/>
</linearGradient>
<linearGradient id="linear5" gradientUnits="userSpaceOnUse" x1="25" y1="33.542" x2="25" y2="11.977" >
<stop offset="0.018" style="stop-color:rgb(100%,97.254902%,89.803922%);stop-opacity:1;"/>
<stop offset="1" style="stop-color:rgb(100%,99.607843%,97.254902%);stop-opacity:1;"/>
</linearGradient>
</defs>
<g id="surface141170421">
<path style=" stroke:none;fill-rule:nonzero;fill:url(#radial0);" d="M 58 20 L 53.105469 20 C 52.109375 20 51.1875 19.320312 51.027344 18.335938 C 50.824219 17.082031 51.785156 16 53 16 L 53.828125 16 C 55.453125 16 56.910156 14.785156 56.996094 13.160156 C 57.085938 11.429688 55.710938 10 54 10 L 28 10 L 28 11 L 18.148438 11 C 16.566406 11 15.144531 12.160156 15.011719 13.738281 C 14.859375 15.515625 16.261719 17.007812 18.011719 17 C 18.75 16.996094 19.464844 17.230469 20 17.6875 L 20 21 L 12.699219 21 C 10.804688 21 9.105469 22.417969 9.003906 24.3125 C 8.902344 26.277344 10.425781 27.898438 12.347656 27.984375 C 12.90625 29.171875 14.101562 30 15.5 30 L 19.910156 30 C 19.941406 30 19.96875 30.007812 20 30.007812 L 20 34.007812 C 19.160156 34.066406 18.378906 34.429688 17.824219 35 L 11 35 C 9.617188 35 8.5 36.117188 8.5 37.5 C 8.5 38.882812 9.617188 40 11 40 L 11.5 40 C 12.882812 40 14 41.117188 14 42.5 C 14 43.882812 12.882812 45 11.5 45 L 5.171875 45 C 3.546875 45 2.089844 46.214844 2.003906 47.839844 C 1.914062 49.570312 3.289062 51 5 51 L 9.894531 51 C 10.890625 51 11.8125 51.679688 11.972656 52.664062 C 12.175781 53.917969 11.214844 55 10 55 L 9.171875 55 C 7.546875 55 6.089844 56.214844 6.003906 57.839844 C 5.914062 59.570312 7.289062 61 9 61 L 44.851562 61 C 46.433594 61 47.855469 59.839844 47.988281 58.261719 C 48.140625 56.484375 46.738281 54.992188 44.988281 55 C 44.105469 55.003906 43.257812 54.660156 42.714844 54 L 43 54 L 43 50 L 50.300781 50 C 52.195312 50 53.894531 48.582031 53.996094 46.6875 C 54.101562 44.671875 52.496094 43 50.5 43 L 50.292969 43 C 49.652344 41.875 48.640625 41 47.5 41 L 43.089844 41 C 43.058594 41 43.03125 40.992188 43 40.992188 L 43 36.992188 C 43.839844 36.933594 44.621094 36.570312 45.175781 36 L 52 36 C 53.382812 36 54.5 34.882812 54.5 33.5 C 54.5 32.121094 53.382812 31 52 31 L 51.5 31 C 50.117188 31 49 29.882812 49 28.5 C 49 27.121094 50.117188 26 51.5 26 L 57.828125 26 C 59.453125 26 60.910156 24.785156 60.996094 23.160156 C 61.085938 21.429688 59.710938 20 58 20 Z M 58 20 "/>
<path style=" stroke:none;fill-rule:nonzero;fill:url(#linear0);" d="M 53 57 L 16 57 C 10.476562 57 6 52.523438 6 47 L 6 11 C 6 9.34375 7.34375 8 9 8 L 41 8 C 42.65625 8 44 9.34375 44 11 L 44 48 C 44 52.972656 48.027344 57 53 57 Z M 53 57 "/>
<path style=" stroke:none;fill-rule:nonzero;fill:url(#linear1);" d="M 52.5 57 C 47.804688 57 44 53.195312 44 48.5 L 44 28 L 58 28 C 59.65625 28 61 29.34375 61 31 L 61 48.5 C 61 53.195312 57.195312 57 52.5 57 Z M 52.5 57 "/>
<path style=" stroke:none;fill-rule:nonzero;fill:url(#linear2);" d="M 54.972656 30.335938 C 54.8125 31.320312 53.890625 32 52.894531 32 L 51.105469 32 C 50.109375 32 49.1875 32.679688 49.027344 33.664062 C 48.824219 34.917969 49.785156 36 51 36 L 52.5 36 C 53.328125 36 54 36.671875 54 37.5 C 54 38.328125 53.328125 39 52.5 39 L 49.621094 39 C 48.316406 39 47.125 39.941406 46.992188 41.242188 C 46.84375 42.738281 48.015625 44 49.480469 44 L 55.5 44 C 56.328125 44 57 44.671875 57 45.5 C 57 46.328125 56.328125 47 55.5 47 L 54.105469 47 C 53.109375 47 52.1875 47.679688 52.027344 48.664062 C 51.824219 49.917969 52.785156 51 54 51 L 60.625 51 C 60.867188 50.210938 61 49.371094 61 48.5 L 61 31 C 61 29.34375 59.65625 28 58 28 L 53 28 C 54.214844 28 55.175781 29.082031 54.972656 30.335938 Z M 54.972656 30.335938 "/>
<path style=" stroke:none;fill-rule:nonzero;fill:url(#linear3);" d="M 12 38.5 C 12 39.882812 13.117188 41 14.5 41 L 18 41 C 19.105469 41 20 41.894531 20 43 C 20 44.105469 19.105469 45 18 45 L 16 45 C 14.894531 45 14 45.894531 14 47 C 14 48.105469 14.894531 49 16 49 L 23 49 C 24.105469 49 25 49.894531 25 51 C 25 52.105469 24.105469 53 23 53 L 21 53 C 19.894531 53 19 53.894531 19 55 C 19 56.105469 19.894531 57 21 57 L 52.5 57 C 47.804688 57 44 53.195312 44 48.5 L 44 36 L 14.5 36 C 13.117188 36 12 37.117188 12 38.5 Z M 12 38.5 "/>
<path style=" stroke:none;fill-rule:nonzero;fill:url(#linear4);" d="M 14 19 L 15.894531 19 C 16.890625 19 17.8125 18.320312 17.972656 17.335938 C 18.175781 16.082031 17.214844 15 16 15 L 14.5 15 C 13.671875 15 13 14.328125 13 13.5 C 13 12.671875 13.671875 12 14.5 12 L 22 12 C 23.214844 12 24.175781 10.917969 23.972656 9.664062 C 23.8125 8.679688 22.890625 8 21.894531 8 L 9 8 C 7.34375 8 6 9.34375 6 11 L 6 23 L 15.894531 23 C 16.890625 23 17.8125 22.320312 17.972656 21.335938 C 18.175781 20.082031 17.214844 19 16 19 Z M 14 19 "/>
<path style=" stroke:none;fill-rule:nonzero;fill:url(#linear5);" d="M 36 27 L 14 27 C 12.894531 27 12 26.105469 12 25 L 12 18 C 12 16.894531 12.894531 16 14 16 L 36 16 C 37.105469 16 38 16.894531 38 18 L 38 25 C 38 26.105469 37.105469 27 36 27 Z M 36 27 "/>
<path style=" stroke:none;fill-rule:nonzero;fill:rgb(100%,100%,100%);fill-opacity:1;" d="M 27 36 L 14 36 C 12.894531 36 12 35.105469 12 34 C 12 32.894531 12.894531 32 14 32 L 27 32 C 28.105469 32 29 32.894531 29 34 C 29 35.105469 28.105469 36 27 36 Z M 36 36 L 34 36 C 32.894531 36 32 35.105469 32 34 C 32 32.894531 32.894531 32 34 32 L 36 32 C 37.105469 32 38 32.894531 38 34 C 38 35.105469 37.105469 36 36 36 Z M 16 50 L 14 50 C 12.894531 50 12 49.105469 12 48 C 12 46.894531 12.894531 46 14 46 L 16 46 C 17.105469 46 18 46.894531 18 48 C 18 49.105469 17.105469 50 16 50 Z M 36 50 L 23 50 C 21.894531 50 21 49.105469 21 48 C 21 46.894531 21.894531 46 23 46 L 36 46 C 37.105469 46 38 46.894531 38 48 C 38 49.105469 37.105469 50 36 50 Z M 20 43 L 14 43 C 12.894531 43 12 42.105469 12 41 C 12 39.894531 12.894531 39 14 39 L 20 39 C 21.105469 39 22 39.894531 22 41 C 22 42.105469 21.105469 43 20 43 Z M 36 43 L 27 43 C 25.894531 43 25 42.105469 25 41 C 25 39.894531 25.894531 39 27 39 L 36 39 C 37.105469 39 38 39.894531 38 41 C 38 42.105469 37.105469 43 36 43 Z M 36 43 "/>
</g>
</svg>
